<svg id="レイヤー_1" data-name="レイヤー 1" xmlns="http://www.w3.org/2000/svg" viewBox="0 0 595.28 595.28"><defs><style>.cls-1{fill:#fff;}.cls-2,.cls-3,.cls-4{stroke:#000;}.cls-2{stroke-width:0.3px;}.cls-3{stroke-width:0.29px;}.cls-4{stroke-width:0.3px;}</style></defs><title>ChatGPT Image 2026年7月5日 17_00_31</title><rect class="cls-1" width="595.28" height="595.28"/><path class="cls-2" d="M53.1,434.31H48.52v-.84H53.1v-7.9l2.29.43c.72.47.54.8-.54,1v6.49h1.89l1.75-1.83,2.15,1.69c.54.47.54.8,0,1H54.85v4.52a13,13,0,0,1,4.72,2.68,2,2,0,0,1,.53,1.41c0,.75-.22,1.12-.67,1.12a1.22,1.22,0,0,1-1.08-.84,8.43,8.43,0,0,0-3.5-3.67v17.2c-1.17,1.13-1.75,1.18-1.75.14V440.94a33.51,33.51,0,0,1-4.72,8.18c-.45.47-.67.38-.67-.28a38.83,38.83,0,0,0,5.39-13.68Zm25.2,20.17q-5.4-4.23-8.36-12.55v14.38c-1.17,1.13-1.75,1.18-1.75.14V443.2q-5.79,8.18-11.59,11.42c-.54.19-.67,0-.4-.57a42.2,42.2,0,0,0,11.32-13.11H60v-.84h8.22v-6.63H63.74a23.32,23.32,0,0,1-3,5.5c-.63.47-.86.33-.68-.43a31.1,31.1,0,0,0,3-10.29l2.29.71c1,.37.85.75-.4,1.12a16.25,16.25,0,0,1-.95,2.54h4.18v-6.91l2.29.43c.72.47.54.8-.54,1v5.5h4.58l1.75-1.83,2.16,1.69q.81.7,0,1H69.94v6.63h5.8l1.75-1.84L79.64,440c.54.48.54.8,0,1H70.35q3.77,8.46,10,11.56A3.79,3.79,0,0,0,78.3,454.48Z"/><path class="cls-3" d="M114.64,434q.66,11.41,6.2,17.34c1.58,1.7,2.86,2.54,3.83,2.54a.71.71,0,0,0,.79-.56l1.45-4.66c.35-.56.57-.46.66.29l-.79,5.35a1.63,1.63,0,0,0,.66,1.27.86.86,0,0,1,.39.71c0,.47-.35.7-1,.7q-3.57,0-7.26-3.94-6.06-6.5-6.59-19H96.83v-.85h16.1c-.09-3.47-.13-5.78-.13-6.9l2.37.42c1.06.19.83.56-.66,1.13,0,.56,0,2.35.13,5.35h7.92l2-2.11,2.5,2c.53.48.53.8,0,1Zm-9.23,16.92q3.82-.84,7.78-2c.53.19.57.42.13.7q-6.72,2.4-13.58,4.65c-.18,1.23-.53,1.46-1.06.71L97,452.45c2.28-.37,4.52-.8,6.72-1.27v-9.3H97V441h11.08l1.71-1.83,2.11,1.69q.8.71,0,1h-6.46Zm16.36-19.74c0,.56-.27.85-.8.85s-.74-.29-.92-.85a8.59,8.59,0,0,0-2.24-2.54c-.27-.28-.18-.42.26-.42C120.53,428.86,121.77,429.85,121.77,431.16Z"/><path class="cls-4" d="M158.25,425.38l3,1.27c.46.75,0,1-1.38.7q5.23,6.91,15.41,10.72a4.46,4.46,0,0,0-2.48,2,32.65,32.65,0,0,1-13.48-12.4q-7.84,10.14-15.55,13c-.46,0-.5-.19-.14-.57A40.84,40.84,0,0,0,158.25,425.38Zm8.94,27.78a37.43,37.43,0,0,0-4-3.53c-.46-.37-.36-.51.28-.42a21.47,21.47,0,0,1,6.19,3.66,4.8,4.8,0,0,1,1.93,3.53c0,.94-.33,1.41-1,1.41-.46,0-.87-.42-1.23-1.27a14.69,14.69,0,0,0-1.66-2.68l-18.71,2c-.55,1.78-1.05,2.11-1.51,1l-1.38-2.68,6.33-.14,2.75-8H143.94v-.85h25.59l1.79-1.83,2.2,1.69q.82.7,0,1h-16l-4.13,7.89Zm-16.65-14.67h12.39l1.51-1.55,1.93,1.41q.82.7,0,1H150.54Z"/><path class="cls-4" d="M197,438.9v1.69c3.76.94,5.65,2.26,5.65,4,0,.66-.24,1-.69,1a1.46,1.46,0,0,1-1.1-.7,11.12,11.12,0,0,0-3.86-3.53v15.65c-1.19,1.13-1.79,1.18-1.79.15V440.87A31.69,31.69,0,0,1,189.2,446c-.37,0-.46-.14-.27-.43a52.48,52.48,0,0,0,10.45-12.83h-8.94v-.84h4.81v-6.49l2.34.42c.74.29.55.62-.55,1v5.08h2.07l1.51-1.55,2.2,2.25c.55.66.09.9-1.37.71Q199.52,435.79,197,438.9ZM217.82,454l2.06-2.11,2.48,2c.37.47.23.8-.41,1H199.66V454h9.77V438.47h-7.71v-.84h7.71v-11.7l2.47.42c1,.19.78.56-.68,1.13v10.15h5.5l1.79-1.83,2.2,1.69c.55.47.55.8,0,1h-9.49V454Z"/><path class="cls-4" d="M265.42,447.36c.37.56,0,.75-1.1.56a32.41,32.41,0,0,1-9.63,7.62c-.37,0-.46-.15-.27-.43a35.29,35.29,0,0,0,8.8-9.3Zm-9.9-5.36h12q4.39-5.78,8.94-12l2.48,1.56c.64.56.14.79-1.52.7l-8.8,9.59,10.59-.42a13.49,13.49,0,0,0-3.57-3q-.28-.42.27-.42,7.42,2.68,7.43,6.35c0,.65-.27,1-.82,1a1.25,1.25,0,0,1-1.11-.7,15.12,15.12,0,0,0-1.65-2.54l-9.22.7v13.54c-1.19,1.13-1.78,1.18-1.78.14V443l-10.46.7c-.37,1.69-.87,1.93-1.52.71Zm11.83-4.51c0,.84-.28,1.27-.83,1.27a.9.9,0,0,1-.82-.43,15.24,15.24,0,0,0-5.51-5.92c-.36-.37-.32-.56.14-.56a12.35,12.35,0,0,1,4.13,2.11,55,55,0,0,0,4.68-8l2.34,1.7c.55.56.09.8-1.38.7q-2.61,3.39-5.09,6.07C266.57,435.61,267.35,436.64,267.35,437.49Zm6.47,8.74a15.54,15.54,0,0,1,7.29,4.23C282.39,451.78,283,453,283,454c0,.76-.33,1.13-1,1.13q-.69,0-1.65-1.83c-1.19-2.26-3.49-4.46-6.88-6.63C273.27,446.37,273.36,446.23,273.82,446.23Z"/><path class="cls-4" d="M323.7,442.42h-1.65l-2.34,3.81h8.53l2.06-2.12,2.62,2c.55.47.55.8,0,1H301.27v-.84h10.87a7.49,7.49,0,0,1-.14-1.41,10.76,10.76,0,0,0-.69-2.4h-1.78v1.27c-1.2,1.13-1.79,1.18-1.79.14v-8l2.06,1.26h13.49l.82-1.12,1.93,1.41c.55.47.36.8-.55,1v4.52c-1.2,1.12-1.79,1.17-1.79.14Zm-6.61-8.74h7l1.51-1.55,1.93,1.41q.82.7,0,1h-22v-.85h9.76v-3.1H301.55v-.85H315.3v-4.37l2.34.42c.74.48.55.8-.55,1v3H327l2.06-2.11,2.62,2q.82.71,0,1H317.09Zm-10.18,14.66,2.07,1.13h15.13l.83-1.13,1.92,1.41c.55.48.37.8-.55,1v5.5c-1.19,1.13-1.79,1.17-1.79.14v-.84H308.7v1.4c-1.19,1.13-1.79,1.18-1.79.15Zm1.79,2v4.37h15.82v-4.37Zm15-12.41H309.53v3.67H323.7Zm-11.56,4.51c1.38,1.41,1.83,2.68,1.38,3.81H319l1-3.81Z"/><path d="M348.69,442.38v-1.57h8.62v1.57Z"/><path d="M390,448.6c.51-.54,4.12-9.17,4.4-9.64s4.19-9,4.3-9.71c.07-.4.47-.43.83-.43,4.8,0,6-.11,6.42-.11.18,0,.22.11.22.25v.83c0,.22,0,.33-.29.33h-1.59c-1.08,0-1.19.65-1.19,1.48,0,1-.11,6.2-.11,8.62v2.53c0,1.8.11,7.65.11,8.37,0,1.37.33,1.95,1.23,1.95h2.13c.22,0,.25.11.25.25v.83c0,.22,0,.33-.32.33-.44,0-1.09-.11-5.06-.11-3.32,0-4.72.11-5.19.11-.26,0-.29-.11-.29-.33v-.83c0-.18,0-.25.29-.25h2.45c.61,0,.94-.21,1-1.3,0-.43.07-6.71.07-9.38v-2.31c0-2.38,0-8.81-.1-9.13h-.08c-.36.47-5.48,11.84-5.66,12.2s-4.23,9.63-4.37,10-.43.86-.72.86-.4-.28-.54-.65-4.73-11.65-4.91-12.09c-.69-1.66-4-9.74-4.48-10.18-.14.51-.21,9.64-.21,10.08s0,8,.07,9.31c.18,2.05.5,2.63,1.66,2.63h1.8c.22,0,.26.11.26.25v.91c0,.14,0,.25-.33.25s-1.37-.11-4.37-.11-4.33.11-4.65.11-.33,0-.33-.33v-.86a.19.19,0,0,1,.22-.22h1.91c1.37,0,1.7-.94,1.91-2.16.44-2.57.55-11.81.55-12.46,0-.5,0-5.95,0-7,0-.83,0-1.33-1.48-1.33h-2.2c-.22,0-.25-.11-.25-.26v-.93c0-.11,0-.22.25-.22s1.33.11,4.4.11c1.7,0,2.64-.11,3.07-.11a.82.82,0,0,1,.94.61Z"/><path d="M421.58,453.94a6.56,6.56,0,0,1-4.29-4.84c-.44-1.62-.58-4-.58-8.77v-8.59c0-1.26-.25-1.84-1.37-1.84h-1.7c-.22,0-.25-.07-.25-.32v-.8c0-.22,0-.29.32-.29s2.13.11,5,.11,4.54-.11,4.94-.11.33.07.33.22v.94c0,.18,0,.25-.29.25h-1.81a1.63,1.63,0,0,0-1.73,1.48c0,.32-.07,2.85-.07,4.69v2.38c0,1.92.14,6.5.18,7.66a8.6,8.6,0,0,0,1.15,4.58,6.74,6.74,0,0,0,5.74,2.6,7.71,7.71,0,0,0,5.42-2c1.4-1.51,1.87-3.68,1.87-6.35v-7.72c0-2.75-.07-4.84-.18-5.74a1.61,1.61,0,0,0-1.62-1.59H431c-.22,0-.25-.11-.25-.29v-.87c0-.18,0-.25.25-.25s2,.11,4.44.11,3.65-.11,4-.11.36.15.36.25v.8c0,.22,0,.36-.21.36h-1.48c-1.34,0-1.45,1-1.56,1.44s-.07,5.49-.07,6-.07,6.83-.18,8.23c-.22,3-1,5.24-3,7-1.45,1.34-3.65,2.17-6.79,2.17A13.53,13.53,0,0,1,421.58,453.94Z"/><path d="M451,453a1.83,1.83,0,0,0-.92-.44c-.25,0-.41.26-.65.62a.72.72,0,0,1-.73.43c-.24,0-.44-.18-.36-.58.16-.9.57-5.48.69-6.53,0-.22.12-.22.28-.22l.6,0c.17,0,.25.07.25.29a6.55,6.55,0,0,0,1.45,4.18,7,7,0,0,0,5.65,2.67c2.42,0,5.48-1.33,5.48-4.58,0-3.72-3-5.09-6.21-6.1-1.25-.4-4.15-1.3-5.89-2.92a6.64,6.64,0,0,1-2-5.27,6.52,6.52,0,0,1,2.51-4.62,8.59,8.59,0,0,1,5.64-1.73,12.72,12.72,0,0,1,4.76.9c.37.18.57.14.77,0l.53-.43a.79.79,0,0,1,.52-.22c.2,0,.32.29.32.62,0,1.26.53,4.94.57,5.73,0,.19,0,.26-.2.29l-.49.11a.17.17,0,0,1-.24-.11,8.54,8.54,0,0,0-2.5-4,6,6,0,0,0-4.4-1.55c-3.59,0-4.88,2.38-4.88,4.22a4.11,4.11,0,0,0,1.25,3.14,13.12,13.12,0,0,0,4.6,2.16c2.78.8,5,1.41,6.49,3a6.6,6.6,0,0,1,1.78,4.91c0,4.26-2.91,7.9-8.23,7.9A10.79,10.79,0,0,1,451,453Z"/><path d="M482.15,453.94a6.6,6.6,0,0,1-4.3-4.84c-.43-1.62-.57-4-.57-8.77v-8.59c0-1.26-.26-1.84-1.37-1.84h-1.7c-.22,0-.25-.07-.25-.32v-.8c0-.22,0-.29.32-.29s2.13.11,5,.11,4.54-.11,4.94-.11.33.07.33.22v.94c0,.18,0,.25-.29.25H482.4a1.63,1.63,0,0,0-1.73,1.48c0,.32-.07,2.85-.07,4.69v2.38c0,1.92.14,6.5.18,7.66a8.6,8.6,0,0,0,1.15,4.58,6.74,6.74,0,0,0,5.74,2.6,7.71,7.71,0,0,0,5.42-2c1.4-1.51,1.87-3.68,1.87-6.35v-7.72c0-2.75-.07-4.84-.18-5.74a1.61,1.61,0,0,0-1.62-1.59h-1.59c-.22,0-.25-.11-.25-.29v-.87c0-.18,0-.25.25-.25s2,.11,4.44.11,3.64-.11,4-.11.36.15.36.25v.8c0,.22,0,.36-.22.36h-1.48c-1.33,0-1.44,1-1.55,1.44s-.07,5.49-.07,6-.07,6.83-.18,8.23c-.22,3-1,5.24-3,7-1.45,1.34-3.65,2.17-6.79,2.17A13.53,13.53,0,0,1,482.15,453.94Z"/><path d="M511.1,438.67c0-1.33-.07-5.74-.11-6.39-.11-2.09-.69-2.16-2.35-2.16h-1.11c-.22,0-.29-.08-.29-.26V429c0-.18.07-.25.29-.25.57,0,2.2.11,4.8.11,1.15,0,3.32-.11,4.58-.11,2.82,0,5.12.25,6.39,1a5.06,5.06,0,0,1,2.78,4.91c0,3.58-1.59,4.48-4.41,6l.11.07c3.5,1.15,5.85,3.32,5.85,7.15a7.06,7.06,0,0,1-2.78,5.41c-1.52.94-3.57,1.3-6.89,1.3-2.49,0-3.9-.11-5.42-.11-1.8,0-3.93.11-4.62.11-.43,0-.5-.07-.5-.22v-.94c0-.18.07-.25.32-.25h1.73c1.12,0,1.3-.43,1.45-1.59.11-.83.18-5.59.18-8.55Zm3.18,1.41a18,18,0,0,0,1.91.07,8.41,8.41,0,0,0,4.55-.94,5.23,5.23,0,0,0,2-4.33,4.51,4.51,0,0,0-1.77-3.79,8.81,8.81,0,0,0-5-1.23,6,6,0,0,0-1.19,0,.65.65,0,0,0-.5.65c0,.72-.07,3.86-.07,6.86Zm0,3.46v5c0,3.33.79,4.8,3.78,4.8s5.82-1.44,5.82-5.73a5.68,5.68,0,0,0-3.61-5.67,13.37,13.37,0,0,0-4.84-.61h-1.15Z"/><path d="M540.67,439.25c0-.87-.1-7.36-.14-7.91-.07-.86-.43-1.22-1.8-1.22h-2.1c-.18,0-.29-.08-.29-.22v-1c0-.15.11-.22.26-.22.43,0,2.27.11,5.63.11s4.36-.11,4.87-.11a.23.23,0,0,1,.25.25v.9c0,.18-.11.26-.29.26h-1.69c-.72,0-1.27.29-1.27,1,0,.36-.1,8.33-.1,8.77v2.78c0,.36.1,8.7.1,9.09,0,1.12.55,1.3,1.7,1.3h1.48c.18,0,.29.07.29.25v.94c0,.15-.11.22-.33.22-.43,0-1.87-.11-5-.11-3.43,0-5,.11-5.38.11-.18,0-.29-.07-.29-.22v-1c0-.15.11-.22.29-.22h2c.72,0,1.48-.11,1.62-1,.08-.55.18-8.34.18-10.26Z"/><polygon points="286.63 256.47 174.97 137.45 174.97 359.06 180.04 359.06 180.04 150.53 286.63 264.14 393.12 150.53 393.12 359.06 398.2 359.06 398.2 137.45 286.63 256.47"/><rect x="338.48" y="313.17" width="125.44" height="5.07"/><rect x="187.26" y="156.64" width="5.07" height="202.42"/></svg>